<!-- Provisional botanical illustration — cherries
     Original provisional artwork for the Seasonal prototype. Replaceable. -->
<svg xmlns="http://www.w3.org/2000/svg" viewBox="0 0 200 220" fill="none" stroke="#1f2a24" stroke-linecap="round" stroke-linejoin="round" aria-label="Cherries illustration">
  <!-- shared stem base -->
  <path d="M100 190 C100 170 100 150 100 120" stroke-width="1.5"/>
  <!-- left branch -->
  <path d="M100 120 C96 108 88 96 80 88" stroke-width="1.4"/>
  <!-- right branch -->
  <path d="M100 120 C104 108 112 96 122 88" stroke-width="1.4"/>
  <!-- stem curl left -->
  <path d="M80 88 C78 80 78 72 80 66" stroke-width="1.3"/>
  <!-- stem curl right -->
  <path d="M122 88 C124 80 124 72 122 66" stroke-width="1.3"/>
  <!-- leaf on left branch -->
  <path d="M90 104 C82 96 76 88 78 82 C84 84 90 92 90 104 Z" stroke-width="1.3"/>
  <path d="M90 104 C86 94 84 88 78 82" stroke-width=".8" opacity=".5"/>
  <!-- leaf on right branch -->
  <path d="M112 100 C120 92 126 84 124 78 C118 80 112 88 112 100 Z" stroke-width="1.3"/>
  <path d="M112 100 C116 90 118 84 124 78" stroke-width=".8" opacity=".5"/>
  <!-- left cherry -->
  <circle cx="80" cy="152" r="26" stroke-width="1.8"/>
  <!-- indent at top of left cherry -->
  <path d="M74 128 C78 124 82 124 86 128" stroke-width="1.1" opacity=".6"/>
  <!-- right cherry -->
  <circle cx="134" cy="144" r="24" stroke-width="1.8"/>
  <!-- indent at top of right cherry -->
  <path d="M128 122 C132 118 136 118 140 122" stroke-width="1.1" opacity=".6"/>
</svg>
