<!-- Provisional botanical illustration — sweet corn
     Original provisional artwork for the Seasonal prototype. Replaceable. -->
<svg xmlns="http://www.w3.org/2000/svg" viewBox="0 0 200 220" fill="none" stroke="#1f2a24" stroke-linecap="round" stroke-linejoin="round" aria-label="Sweet corn illustration">
  <!-- husk leaves -->
  <path d="M100 40 C88 52 76 80 78 130 C80 160 88 182 100 192" stroke-width="1.3" opacity=".5"/>
  <path d="M100 40 C112 52 124 80 122 130 C120 160 112 182 100 192" stroke-width="1.3" opacity=".5"/>
  <path d="M100 36 C84 50 68 88 72 140 C74 164 84 186 100 196" stroke-width="1.2" opacity=".35"/>
  <path d="M100 36 C116 50 132 88 128 140 C126 164 116 186 100 196" stroke-width="1.2" opacity=".35"/>
  <!-- cob body -->
  <path d="M88 52 C82 62 80 90 80 120 C80 150 84 172 88 182 C91 188 96 190 100 190 C104 190 109 188 112 182 C116 172 120 150 120 120 C120 90 118 62 112 52 C109 46 104 44 100 44 C96 44 91 46 88 52 Z" stroke-width="1.8"/>
  <!-- kernel rows — horizontal lines -->
  <line x1="82" y1="76" x2="118" y2="76" stroke-width=".9" opacity=".45"/>
  <line x1="81" y1="90" x2="119" y2="90" stroke-width=".9" opacity=".45"/>
  <line x1="80" y1="104" x2="120" y2="104" stroke-width=".9" opacity=".45"/>
  <line x1="80" y1="118" x2="120" y2="118" stroke-width=".9" opacity=".45"/>
  <line x1="80" y1="132" x2="120" y2="132" stroke-width=".9" opacity=".45"/>
  <line x1="81" y1="146" x2="119" y2="146" stroke-width=".9" opacity=".45"/>
  <line x1="82" y1="160" x2="118" y2="160" stroke-width=".9" opacity=".45"/>
  <!-- silk at top -->
  <path d="M94 44 C90 34 86 24 84 16" stroke-width="1" opacity=".55"/>
  <path d="M98 43 C96 32 94 22 94 14" stroke-width="1" opacity=".55"/>
  <path d="M102 43 C102 32 104 22 104 14" stroke-width="1" opacity=".55"/>
  <path d="M106 44 C108 34 112 24 114 16" stroke-width="1" opacity=".55"/>
</svg>
